<?xml version="1.0" standalone="no"?>
<!DOCTYPE svg PUBLIC "-//W3C//DTD SVG 20010904//EN"
 "http://www.w3.org/TR/2001/REC-SVG-20010904/DTD/svg10.dtd">
<svg version="1.0" xmlns="http://www.w3.org/2000/svg"
 width="650.000000pt" height="500.000000pt" viewBox="0 0 650.000000 500.000000"
 preserveAspectRatio="xMidYMid meet">

<g transform="translate(0.000000,500.000000) scale(0.100000,-0.100000)"
fill="#000000" stroke="none">
<path d="M5081 4593 c-8 -14 -12 -15 -19 -5 -7 11 -12 10 -26 -4 -9 -9 -15
-23 -12 -31 3 -8 6 -30 6 -50 0 -26 5 -36 20 -40 24 -6 26 -39 5 -67 -14 -19
-16 -19 -49 -1 -24 13 -33 25 -32 41 0 12 4 20 9 17 11 -7 9 5 -8 37 -14 26
-21 30 -63 31 -26 1 -59 2 -74 3 -16 1 -28 -2 -28 -6 0 -4 -9 -8 -20 -8 -11 0
-20 -5 -20 -11 0 -5 -6 -7 -12 -3 -7 4 4 -9 25 -28 20 -20 37 -40 37 -44 0 -5
21 -17 46 -28 36 -15 50 -16 70 -7 20 9 31 8 54 -4 64 -33 60 -76 -14 -145
-36 -34 -46 -50 -46 -75 0 -45 -22 -62 -58 -45 -15 8 -30 13 -33 12 -3 0 -4
10 -1 24 6 32 -14 55 -42 48 -16 -4 -27 3 -44 25 -12 17 -30 31 -39 31 -8 0
-38 24 -66 53 l-51 52 31 3 c17 2 34 10 37 18 7 18 -10 54 -25 54 -6 0 -8 7
-5 16 5 13 1 15 -20 10 -15 -4 -32 -2 -40 5 -11 9 -18 9 -26 1 -17 -17 -28
-15 -29 6 0 9 -3 12 -5 5 -3 -6 2 -24 10 -40 11 -20 15 -23 16 -10 0 9 7 17
15 17 18 0 19 -12 4 -27 -8 -8 -4 -15 11 -26 14 -10 20 -22 17 -31 -11 -29
-37 -14 -76 45 -14 21 -31 35 -38 32 -7 -3 -13 2 -13 11 0 9 -4 16 -9 16 -5 0
-17 7 -26 16 -9 9 -19 13 -23 10 -3 -4 0 -11 8 -16 8 -5 12 -12 8 -15 -8 -9
-48 26 -42 37 3 4 -6 8 -20 8 -29 0 -33 -15 -11 -44 8 -11 15 -32 15 -46 0
-21 11 -34 49 -58 55 -36 68 -38 97 -18 18 13 24 10 73 -30 29 -24 57 -44 62
-44 12 0 49 -37 49 -49 0 -6 -12 -6 -30 0 -63 22 -59 3 4 -21 57 -21 70 -30
82 -59 7 -18 11 -37 8 -42 -3 -6 5 -7 20 -3 34 8 33 -2 -1 -19 l-26 -14 25
-17 c28 -19 58 -12 58 13 -1 14 -3 13 -15 -3 -8 -11 -18 -17 -21 -13 -4 3 1
14 11 23 23 23 46 9 61 -37 10 -29 8 -43 -14 -99 -13 -36 -25 -70 -25 -77 0
-7 -3 -10 -7 -8 -4 2 -23 -16 -44 -41 -21 -25 -55 -56 -77 -71 -21 -14 -36
-29 -33 -34 3 -5 -1 -6 -9 -3 -8 3 -32 -18 -61 -56 -45 -57 -66 -73 -66 -50 0
6 -5 10 -12 10 -6 0 1 -13 17 -30 22 -23 34 -28 53 -23 14 3 37 6 51 7 18 1
32 11 46 35 11 19 40 53 64 75 24 23 54 64 66 91 13 28 39 66 57 85 29 30 41
35 81 36 37 1 48 -2 52 -18 9 -26 44 -46 89 -50 32 -3 40 1 47 20 7 20 5 25
-11 29 -11 3 -20 10 -20 15 0 6 8 7 18 4 9 -3 0 10 -20 29 -38 36 -48 51 -25
40 6 -4 3 1 -7 9 -17 14 -23 14 -40 3 -12 -8 -25 -24 -31 -35 -6 -15 -19 -22
-37 -22 -14 0 -34 -3 -44 -7 -14 -5 -16 -3 -9 13 4 10 15 46 24 79 10 33 25
71 34 85 9 14 17 42 19 63 1 20 5 37 8 37 3 0 14 13 23 30 22 37 52 53 83 46
16 -4 24 -14 24 -29 0 -13 15 -34 38 -53 69 -57 73 -59 117 -35 22 11 34 21
26 21 -10 0 -11 3 -2 14 9 10 8 16 -4 26 -8 7 -15 19 -15 27 0 9 -5 11 -12 7
-7 -4 -5 2 5 14 22 24 14 50 -9 31 -8 -6 -18 -9 -21 -5 -4 4 -1 11 7 16 10 6
4 8 -20 8 -19 -1 -43 2 -52 6 -13 6 -18 4 -18 -9 0 -9 -5 -13 -10 -10 -6 4 -7
12 -3 18 4 7 0 6 -10 -2 -9 -7 -17 -20 -17 -28 0 -9 -5 -11 -12 -7 -7 5 -24 7
-38 6 -19 -2 -26 3 -26 17 0 11 4 17 9 14 5 -3 6 3 3 14 -7 22 27 73 47 73 7
0 17 -10 22 -22 8 -19 19 -24 58 -26 33 -2 47 0 42 7 -3 6 -1 11 5 11 14 0 3
41 -14 52 -8 6 -7 8 2 8 14 0 17 36 3 45 -5 3 -12 1 -16 -5 -4 -6 -11 -8 -16
-4 -14 8 -40 -16 -32 -29 4 -6 0 -8 -10 -4 -10 4 -20 0 -25 -10 -14 -24 -42
-9 -42 22 0 15 4 23 10 20 5 -3 18 -2 28 4 24 13 30 116 6 125 -8 3 -12 11 -8
17 4 8 9 7 16 -2 8 -11 9 -11 5 1 -6 23 -53 25 -66 3z m-36 -33 c3 -5 1 -10
-4 -10 -6 0 -11 5 -11 10 0 6 2 10 4 10 3 0 8 -4 11 -10z m85 -20 c0 -5 -4
-10 -10 -10 -5 0 -10 5 -10 10 0 6 5 10 10 10 6 0 10 -4 10 -10z m-173 -36
c-3 -3 -12 -4 -19 -1 -8 3 -5 6 6 6 11 1 17 -2 13 -5z m-139 -22 c2 -7 -3 -12
-12 -12 -9 0 -16 7 -16 16 0 17 22 14 28 -4z m242 -2 c0 -5 -4 -10 -10 -10 -5
0 -10 5 -10 10 0 6 5 10 10 10 6 0 10 -4 10 -10z m-640 -40 c0 -5 -4 -10 -10
-10 -5 0 -10 5 -10 10 0 6 5 10 10 10 6 0 10 -4 10 -10z m180 6 c0 -3 -4 -8
-10 -11 -5 -3 -10 -1 -10 4 0 6 5 11 10 11 6 0 10 -2 10 -4z m250 -16 c0 -5
-4 -10 -10 -10 -5 0 -10 5 -10 10 0 6 5 10 10 10 6 0 10 -4 10 -10z m-415 -20
c3 -5 1 -10 -4 -10 -6 0 -11 5 -11 10 0 6 2 10 4 10 3 0 8 -4 11 -10z m783
-52 c-6 -17 -23 -9 -24 12 -1 16 1 18 13 9 7 -7 12 -16 11 -21z m-498 -118 c0
-5 -4 -10 -10 -10 -5 0 -10 5 -10 10 0 6 5 10 10 10 6 0 10 -4 10 -10z m28
-25 c-3 -3 -9 2 -12 12 -6 14 -5 15 5 6 7 -7 10 -15 7 -18z m27 -65 l20 -25
-22 19 c-13 11 -23 24 -23 29 0 6 1 8 3 6 1 -2 11 -15 22 -29z m495 5 c0 -8
-4 -15 -9 -15 -13 0 -22 16 -14 24 11 11 23 6 23 -9z m-364 -152 c-10 -10 -19
5 -10 18 6 11 8 11 12 0 2 -7 1 -15 -2 -18z m144 -63 c-24 -15 -36 -11 -14 4
10 8 21 12 24 10 2 -3 -2 -9 -10 -14z m-180 -40 c0 -5 -2 -10 -4 -10 -3 0 -8
5 -11 10 -3 6 -1 10 4 10 6 0 11 -4 11 -10z m190 -55 c0 -8 -4 -15 -10 -15 -5
0 -10 7 -10 15 0 8 5 15 10 15 6 0 10 -7 10 -15z m-270 -69 c0 -2 -7 -7 -16
-10 -8 -3 -12 -2 -9 4 6 10 25 14 25 6z m-70 -116 c0 -5 -5 -10 -11 -10 -5 0
-7 5 -4 10 3 6 8 10 11 10 2 0 4 -4 4 -10z m-111 -71 c-13 -19 -25 -27 -27
-20 -4 13 38 65 46 57 2 -3 -6 -19 -19 -37z m53 -21 c-7 -7 -12 -8 -12 -2 0 6
3 14 7 17 3 4 9 5 12 2 2 -3 -1 -11 -7 -17z"/>
<path d="M4029 4484 c-8 -9 -33 -25 -57 -35 -35 -15 -43 -23 -40 -41 2 -18 9
-22 28 -20 19 1 21 0 11 -7 -11 -7 -12 -13 -3 -23 8 -11 5 -21 -14 -43 -14
-17 -23 -22 -20 -13 6 21 -44 65 -54 47 -5 -6 -10 -1 -14 13 -4 14 -9 18 -13
11 -7 -18 -23 -16 -23 3 0 8 -4 13 -8 10 -4 -2 -6 -23 -4 -45 3 -33 10 -44 39
-61 19 -11 41 -20 50 -20 10 0 13 -5 8 -17 -4 -10 -9 -36 -12 -58 -3 -22 -11
-47 -19 -55 -7 -8 -13 -19 -13 -24 0 -6 -7 -11 -14 -12 -26 -4 -66 -35 -61
-48 3 -8 -4 -16 -15 -19 -14 -3 -21 0 -21 9 0 20 -13 17 -60 -13 -41 -27 -41
-28 -16 -34 14 -4 48 -10 75 -14 39 -5 51 -4 52 7 0 7 5 4 10 -7 7 -15 8 -13
3 12 -4 23 0 34 14 45 10 7 21 20 24 29 4 10 21 18 43 21 32 4 42 -1 67 -26
20 -20 32 -27 35 -19 4 10 10 10 26 -2 12 -8 28 -15 37 -14 10 0 11 2 3 6 -7
2 -13 9 -13 14 0 6 6 7 13 3 6 -4 3 2 -7 15 -11 12 -26 19 -34 16 -10 -4 -12
0 -8 11 5 14 4 15 -8 5 -10 -9 -16 -9 -21 -1 -4 6 -14 9 -22 6 -8 -3 -23 -1
-33 4 -15 8 -18 18 -14 46 2 20 7 40 10 45 7 12 54 12 54 0 0 -13 25 -20 39
-12 15 10 3 41 -15 41 -8 0 -14 5 -14 12 0 6 -8 4 -19 -6 -24 -21 -43 -12 -39
17 3 22 45 77 58 77 4 0 24 -12 45 -26 36 -24 65 -26 65 -4 0 6 -4 8 -10 5 -5
-3 -10 -1 -10 5 0 6 8 10 18 8 11 -2 18 5 20 20 5 30 -24 73 -43 66 -12 -5
-12 -2 1 25 17 34 16 72 -3 78 -7 3 -15 -7 -19 -21 -3 -14 -12 -26 -19 -26
-24 0 -26 18 -3 34 12 9 17 16 11 16 -6 0 -17 -7 -24 -16z m-49 -52 c0 -13
-12 -22 -22 -16 -10 6 -1 24 13 24 5 0 9 -4 9 -8z m100 -12 c0 -5 -4 -10 -10
-10 -5 0 -10 5 -10 10 0 6 5 10 10 10 6 0 10 -4 10 -10z m40 -76 c0 -8 -4 -12
-10 -9 -5 3 -10 10 -10 16 0 5 5 9 10 9 6 0 10 -7 10 -16z m-200 -24 c0 -5 -2
-10 -4 -10 -3 0 -8 5 -11 10 -3 6 -1 10 4 10 6 0 11 -4 11 -10z"/>
<path d="M2947 4326 c-11 -28 4 -47 32 -44 20 2 26 8 26 28 0 20 -6 26 -26 28
-17 2 -29 -3 -32 -12z"/>
<path d="M2771 4269 c-25 -23 -30 -89 -7 -89 18 0 26 -22 26 -71 0 -48 -12
-50 -66 -9 -55 42 -69 39 -99 -21 -22 -42 -25 -57 -18 -91 5 -23 15 -44 22
-46 11 -4 13 5 8 41 -4 25 -3 49 2 52 14 8 43 -141 39 -203 -3 -52 -1 -57 19
-60 19 -3 23 3 28 42 4 25 4 67 0 92 l-6 45 39 -20 c22 -11 50 -36 62 -56 23
-37 47 -45 56 -20 9 23 -55 103 -93 116 -43 14 -63 34 -63 64 0 23 2 24 28 13
15 -7 32 -17 38 -24 8 -10 13 -8 23 8 9 15 10 23 2 31 -24 24 -9 113 20 120
33 9 20 75 -20 96 -14 8 -23 5 -40 -10z"/>
<path d="M2968 4258 c-39 -32 -59 -77 -56 -125 3 -56 22 -64 26 -13 6 72 16
62 22 -20 4 -56 2 -102 -6 -135 -14 -51 -7 -72 19 -62 16 6 37 79 37 131 0 20
3 36 6 36 16 0 44 -23 44 -35 0 -8 5 -15 10 -15 6 0 20 -16 31 -35 21 -34 42
-44 54 -25 3 5 1 19 -5 30 -9 17 -7 22 15 32 34 15 32 49 -4 91 -16 18 -29 41
-28 52 2 14 -7 21 -31 26 -19 4 -51 23 -71 43 -42 41 -42 41 -63 24z m130
-105 c2 -1 -4 -13 -13 -27 -24 -36 -55 -19 -55 29 l0 34 33 -17 c17 -9 33 -18
35 -19z m35 -59 c-3 -8 0 -14 6 -14 14 0 14 -23 0 -37 -9 -9 -16 -8 -27 4 -12
12 -13 16 -2 23 10 6 10 8 0 12 -8 2 -10 12 -5 26 5 18 10 21 20 12 8 -6 11
-18 8 -26z"/>
<path d="M2626 4194 c-9 -8 -16 -18 -16 -22 1 -38 63 -42 68 -5 4 30 -31 49
-52 27z"/>
<path d="M479 4153 c-1 -5 -1 -12 0 -17 1 -5 -6 -17 -15 -27 -16 -18 -16 -19
0 -19 19 0 54 17 73 35 9 9 9 15 0 24 -12 12 -56 15 -58 4z"/>
<path d="M2455 4127 c-12 -61 -3 -101 24 -107 13 -3 28 -14 33 -25 8 -19 8
-19 5 1 -3 13 3 25 14 33 26 16 24 49 -6 94 -33 48 -62 49 -70 4z"/>
<path d="M4493 4143 c-9 -22 11 -49 33 -45 13 2 15 0 7 -5 -16 -11 -4 -28 25
-38 23 -7 23 -6 8 17 -19 28 -9 46 10 20 12 -16 12 -16 9 3 -2 11 -4 23 -4 27
-1 4 -8 4 -18 1 -12 -5 -14 -3 -8 7 6 10 4 12 -8 7 -10 -3 -17 -2 -17 2 0 17
-31 21 -37 4z m27 -13 c0 -5 -4 -10 -10 -10 -5 0 -10 5 -10 10 0 6 5 10 10 10
6 0 10 -4 10 -10z"/>
<path d="M1060 4101 c-103 -57 -94 -205 16 -247 54 -20 106 -9 144 31 l23 24
-34 -10 c-57 -18 -78 -22 -94 -15 -13 5 -13 9 -3 26 7 11 19 20 27 20 11 0 12
3 4 11 -8 8 -18 6 -36 -6 -45 -29 -96 8 -83 60 3 13 2 27 -4 30 -15 9 4 38 26
42 92 15 94 15 94 0 0 -17 -24 -40 -33 -30 -4 3 -7 1 -7 -5 0 -16 15 -15 51 4
28 14 33 14 55 -1 18 -12 24 -24 24 -53 0 -45 14 -72 24 -47 20 52 -8 127 -58
160 -39 26 -96 28 -136 6z"/>
<path d="M4714 4104 c3 -9 6 -19 6 -22 0 -9 20 21 20 31 0 4 -7 7 -16 7 -11 0
-14 -5 -10 -16z"/>
<path d="M4120 4096 c0 -8 5 -18 10 -21 6 -3 10 3 10 14 0 12 -4 21 -10 21 -5
0 -10 -6 -10 -14z"/>
<path d="M1395 4059 c-14 -22 -25 -42 -23 -43 41 -29 68 -46 75 -46 4 0 18 16
31 36 26 39 23 48 -26 76 l-30 18 -27 -41z"/>
<path d="M4660 4093 c0 -7 -8 -13 -17 -14 -11 0 -13 -3 -5 -6 6 -2 9 -10 5
-16 -4 -7 2 -5 12 3 17 14 18 13 13 -7 -5 -19 -4 -20 13 -10 10 6 15 14 10 17
-4 3 -13 14 -19 25 -6 11 -12 14 -12 8z"/>
<path d="M2325 4066 c-22 -16 -15 -50 11 -54 25 -4 47 19 38 41 -8 22 -29 28
-49 13z"/>
<path d="M2363 4003 c-7 -2 -20 -30 -29 -60 -15 -52 -15 -58 1 -94 10 -21 22
-39 26 -39 17 0 19 21 4 51 -11 20 -13 35 -7 41 13 13 72 -137 72 -183 0 -42
21 -76 40 -64 15 9 8 122 -11 156 -11 21 -10 21 27 15 25 -5 53 -21 76 -43 32
-31 39 -34 53 -23 25 21 -52 95 -116 110 -40 10 -49 17 -58 42 -6 17 -11 31
-11 32 0 1 22 -1 50 -2 41 -3 50 -1 50 12 0 12 -10 16 -35 16 -20 0 -53 9 -75
20 -22 11 -41 20 -42 19 -2 0 -9 -3 -15 -6z"/>
<path d="M1166 3991 c-3 -5 1 -11 9 -15 9 -3 15 0 15 9 0 16 -16 20 -24 6z"/>
<path d="M1070 3980 c0 -5 5 -10 11 -10 5 0 7 5 4 10 -3 6 -8 10 -11 10 -2 0
-4 -4 -4 -10z"/>
<path d="M1561 3947 l-29 -43 21 -14 c12 -7 32 -19 44 -27 20 -13 23 -12 47
24 14 21 26 41 26 44 0 3 -18 18 -40 33 l-39 26 -30 -43z"/>
<path d="M3999 3974 c-7 -9 -24 -20 -38 -25 -18 -7 -21 -13 -13 -21 12 -12 45
11 63 44 12 22 6 23 -12 2z"/>
<path d="M4168 3953 c-20 -42 -18 -49 10 -34 23 12 37 45 27 61 -11 17 -19 11
-37 -27z"/>
<path d="M2183 3955 c-3 -9 -3 -37 0 -62 5 -50 26 -74 56 -66 11 3 21 -2 24
-11 9 -23 -35 -31 -88 -16 -58 16 -71 6 -77 -62 -4 -42 -1 -59 16 -85 11 -18
29 -33 39 -33 22 0 21 9 -3 40 -11 14 -20 33 -20 43 0 29 97 -123 110 -171 11
-44 33 -63 51 -45 12 12 -13 109 -36 139 -8 10 -15 23 -15 28 0 16 81 -4 118
-29 27 -18 39 -22 49 -13 21 17 16 26 -34 58 -35 22 -60 30 -95 30 -40 0 -50
4 -67 29 l-21 28 46 6 c25 2 48 8 51 11 4 4 -1 20 -11 36 -15 27 -16 31 -2 36
29 11 18 50 -24 88 -44 40 -58 44 -67 21z"/>
<path d="M4463 3963 c-18 -7 -16 -20 2 -20 8 0 16 6 19 14 6 13 0 15 -21 6z"/>
<path d="M4717 3953 c-13 -12 -7 -23 14 -23 12 0 17 -4 13 -11 -3 -6 -17 -8
-31 -4 -37 9 -25 -16 18 -37 36 -18 86 -25 60 -9 -7 5 -10 14 -7 20 4 6 2 11
-3 11 -6 0 -11 -4 -11 -10 0 -5 -4 -10 -10 -10 -18 0 -11 18 10 25 11 3 20 15
20 25 0 21 -29 35 -44 20 -13 -13 -29 -13 -21 0 7 11 2 13 -8 3z"/>
<path d="M4328 3933 c-6 -7 -30 -13 -54 -13 -24 0 -44 -4 -44 -8 0 -12 115
-35 141 -28 l24 6 -22 -11 c-13 -7 -23 -16 -23 -22 0 -5 -6 -4 -14 2 -9 8 -38
10 -81 7 -64 -5 -66 -4 -51 13 19 21 23 52 4 33 -7 -7 -24 -12 -38 -12 -15 0
-31 -9 -38 -21 -7 -12 -12 -22 -10 -23 2 -1 47 -26 100 -56 54 -29 138 -84
188 -121 98 -75 123 -86 90 -39 -12 17 -27 27 -33 24 -7 -4 -9 -4 -5 1 4 4 1
14 -7 22 -8 8 -15 24 -15 36 0 11 -10 31 -22 44 -20 21 -20 26 -8 62 7 22 10
49 7 60 -3 12 -1 19 4 15 5 -3 9 1 9 9 0 10 -7 13 -20 10 -11 -3 -18 -8 -15
-12 2 -4 -15 -8 -38 -10 -52 -3 -41 13 24 33 l44 14 -43 -1 c-24 -1 -48 -8
-54 -14z m64 -95 c-7 -7 -12 -8 -12 -2 0 6 3 14 7 17 3 4 9 5 12 2 2 -3 -1
-11 -7 -17z m25 -90 c6 -7 13 -26 17 -42 6 -26 5 -28 -8 -17 -9 8 -16 19 -16
27 0 7 -7 20 -16 28 -13 13 -13 16 -1 16 8 0 19 -6 24 -12z"/>
<path d="M4470 3914 c-8 -21 -8 -31 3 -42 13 -12 14 -10 10 15 -4 25 -3 26 10
11 20 -25 26 -22 24 9 -3 39 -34 43 -47 7z"/>
<path d="M1274 3883 c-11 -16 -23 -33 -27 -39 -6 -10 61 -64 78 -64 6 0 58 81
53 84 -42 30 -68 46 -75 46 -5 0 -18 -12 -29 -27z"/>
<path d="M736 3882 c-3 -5 6 -28 20 -51 18 -32 21 -47 14 -57 -18 -21 32 -23
56 -1 l21 18 -21 26 c-52 64 -79 83 -90 65z"/>
<path d="M1727 3831 l-26 -39 39 -26 c22 -14 41 -26 43 -26 3 0 16 18 31 40
l26 39 -37 26 c-21 14 -41 25 -44 25 -3 0 -18 -18 -32 -39z"/>
<path d="M2062 3858 c-18 -18 -15 -36 9 -48 26 -14 51 4 47 34 -3 24 -37 33
-56 14z"/>
<path d="M1436 3763 l-26 -38 32 -27 c41 -35 55 -32 84 13 l23 37 -38 26 c-20
14 -39 26 -42 26 -3 0 -18 -17 -33 -37z"/>
<path d="M3448 3765 c-7 -9 -18 -21 -23 -28 -14 -15 -17 -57 -4 -57 5 0 9 -7
9 -15 0 -18 31 -35 64 -35 16 0 26 6 26 15 0 9 -9 15 -25 15 -26 0 -34 15 -12
23 9 4 8 8 -3 16 -13 9 -13 11 3 11 9 0 17 5 17 10 0 6 -7 10 -16 10 -8 0 -12
5 -9 10 3 6 15 10 26 10 10 0 19 7 19 15 0 20 -55 20 -72 0z"/>
<path d="M1895 3720 c-15 -22 -26 -42 -24 -43 2 -2 21 -15 42 -31 42 -31 42
-31 81 35 15 26 15 27 -24 53 -22 14 -41 26 -43 26 -3 0 -17 -18 -32 -40z"/>
<path d="M5768 3728 c-8 -14 -13 -57 -13 -110 0 -55 -3 -84 -9 -78 -31 31 -52
-13 -36 -72 8 -29 16 -37 39 -40 23 -3 30 1 40 24 11 25 11 32 -3 47 -16 18
-15 18 24 17 40 -1 42 -2 53 -43 6 -24 15 -43 20 -43 5 0 7 6 4 14 -3 8 -9 30
-12 48 -5 28 -3 35 16 43 38 17 44 38 25 88 -21 55 -85 127 -114 127 -12 0
-27 -10 -34 -22z"/>
<path d="M1143 3695 c-13 -19 -23 -39 -23 -44 0 -4 18 -21 41 -35 45 -30 44
-31 84 36 15 27 15 27 -22 52 -21 15 -42 26 -48 26 -5 0 -20 -16 -32 -35z"/>
<path d="M4500 3701 c-5 -11 -6 -22 -1 -25 4 -3 13 6 19 19 14 30 -2 34 -18 6z"/>
<path d="M3280 3685 c-142 -38 -333 -161 -433 -277 -44 -52 -147 -212 -147
-228 0 -4 -7 -23 -15 -43 l-14 -35 -48 9 c-79 15 -232 12 -293 -7 -201 -60
-394 -219 -484 -397 -86 -171 -101 -398 -36 -532 26 -53 25 -56 -6 -45 -49 19
-44 -1 8 -29 29 -15 54 -27 55 -26 2 1 -4 26 -13 56 -45 156 -54 214 -48 289
7 94 28 179 55 222 141 227 194 279 377 370 l125 62 111 4 c116 4 183 -6 178
-28 -2 -7 -10 -42 -18 -79 -8 -36 -18 -139 -21 -228 -3 -90 -9 -163 -13 -163
-4 0 -13 15 -21 33 -21 52 -49 87 -71 87 -18 0 -20 -5 -15 -39 3 -22 25 -79
50 -128 l45 -88 43 0 44 0 40 74 c22 40 65 100 97 133 32 33 58 62 58 64 0 2
-12 4 -26 4 -36 0 -85 -32 -134 -87 -22 -25 -43 -43 -46 -40 -10 10 14 298 32
370 12 51 20 67 30 63 8 -3 20 -9 28 -12 9 -3 19 3 26 15 9 18 7 23 -19 39
l-29 18 33 71 c18 40 47 92 64 117 17 24 31 51 31 59 0 22 139 150 223 205 70
46 238 112 283 112 10 0 14 8 12 23 -4 28 -26 30 -98 12z"/>
<path d="M1606 3656 c-14 -19 -26 -39 -26 -44 0 -5 18 -22 40 -37 45 -31 44
-32 84 36 15 26 15 27 -24 53 -22 14 -41 26 -44 26 -2 0 -15 -15 -30 -34z"/>
<path d="M5568 3603 c-11 -26 -21 -70 -22 -101 l-1 -54 -43 5 c-39 4 -43 3
-40 -16 3 -19 10 -22 58 -22 l55 -1 0 85 c0 61 5 96 17 119 9 17 12 32 7 32
-6 0 -19 -21 -31 -47z"/>
<path d="M1314 3580 c-29 -44 -27 -52 25 -83 l30 -18 27 41 c29 44 27 52 -25
83 l-30 18 -27 -41z"/>
<path d="M5966 3591 c-10 -11 -20 -38 -23 -60 -5 -35 -3 -41 13 -43 62 -5 76
8 62 61 -14 53 -30 66 -52 42z"/>
<path d="M5482 3573 c-77 -38 -83 -165 -10 -200 41 -20 56 -22 92 -12 48 13
86 61 86 107 0 37 -31 102 -50 102 -5 0 2 -17 16 -37 33 -49 28 -96 -16 -135
-65 -60 -170 -14 -170 74 0 42 36 86 80 98 22 6 40 13 40 15 0 10 -37 4 -68
-12z"/>
<path d="M1771 3535 c-26 -39 -23 -48 28 -78 l30 -18 27 41 c15 22 25 42 23
43 -28 22 -69 47 -76 47 -4 0 -19 -16 -32 -35z"/>
<path d="M4773 3554 c-9 -23 11 -38 26 -20 13 16 7 36 -10 36 -5 0 -12 -7 -16
-16z"/>
<path d="M3876 3529 c-21 -23 -25 -33 -16 -39 10 -6 9 -9 -1 -12 -9 -3 -4 -14
16 -36 33 -38 85 -45 85 -13 0 14 -5 18 -19 14 -10 -3 -22 0 -25 6 -4 6 0 11
8 11 22 0 20 17 -1 23 -17 4 -17 5 0 6 21 1 23 21 1 21 -8 0 -12 5 -9 10 3 6
14 10 25 10 10 0 20 7 24 15 4 11 -2 15 -28 15 -24 0 -40 -8 -60 -31z"/>
<path d="M1481 3466 l-30 -44 39 -26 c22 -14 42 -26 44 -26 6 0 56 72 56 81 0
3 -18 18 -40 33 l-39 26 -30 -44z"/>
<path d="M1966 3416 c-25 -36 -48 -71 -51 -78 -3 -8 24 -32 68 -60 40 -27 76
-48 79 -48 8 0 111 151 106 154 -20 16 -131 88 -142 92 -8 3 -30 -18 -60 -60z"/>
<path d="M4752 3372 l-32 -35 0 -191 c0 -215 4 -230 66 -242 28 -5 36 -12 41
-35 8 -40 44 -70 88 -72 33 -2 40 -7 48 -32 10 -31 44 -75 58 -75 5 0 -3 11
-17 25 -31 31 -26 57 17 98 68 64 171 6 129 -73 -12 -22 -41 -40 -85 -52 -26
-6 -24 -7 10 -3 28 3 48 13 68 35 31 35 34 60 10 101 -17 28 -17 29 16 63 18
19 31 40 28 48 -4 9 -6 8 -6 -4 -1 -9 -15 -28 -32 -42 -85 -72 -183 22 -100
96 50 45 113 35 134 -22 4 -10 6 -11 6 -2 1 7 -76 109 -171 225 -94 117 -173
214 -175 216 -1 2 -17 5 -36 6 -27 3 -39 -3 -65 -33z m118 -372 c26 -26 25
-36 -5 -65 -34 -35 -101 -30 -127 9 -24 35 16 76 72 76 27 0 47 -7 60 -20z
m108 -71 c36 -13 49 -42 32 -74 -25 -46 -109 -60 -151 -26 -20 16 -22 23 -14
47 6 18 24 36 45 46 41 21 47 21 88 7z"/>
<path d="M0 3366 c0 -36 38 -119 51 -111 6 4 9 29 7 59 -2 42 -7 53 -27 64
-31 16 -31 16 -31 -12z"/>
<path d="M1654 3363 c-36 -50 -36 -51 6 -79 44 -29 53 -27 83 25 l18 30 -38
25 c-21 15 -40 26 -43 26 -4 0 -15 -12 -26 -27z"/>
<path d="M3152 3333 c-24 -35 -24 -61 1 -96 15 -22 26 -27 50 -25 38 4 49 28
13 28 -13 0 -28 5 -31 10 -3 6 1 10 9 10 22 0 20 20 -1 21 -12 1 -9 4 7 9 l25
7 -25 11 c-26 11 -25 12 28 28 25 7 11 24 -22 24 -26 0 -39 -7 -54 -27z"/>
<path d="M3880 3349 c-98 -17 -230 -93 -261 -151 -20 -37 1 -31 51 16 28 26
76 59 108 74 52 25 67 27 182 27 119 -1 129 -2 203 -34 42 -18 77 -36 77 -41
0 -4 -12 -10 -27 -13 -32 -7 -71 -33 -62 -41 3 -4 18 -2 33 4 15 5 49 10 76
10 39 0 52 4 60 20 9 17 5 28 -19 64 -28 41 -58 63 -69 52 -2 -3 3 -17 12 -30
9 -14 16 -27 16 -30 0 -3 -24 6 -54 19 -117 52 -230 71 -326 54z"/>
<path d="M2382 3303 c-21 -31 -24 -61 -8 -80 6 -7 17 -19 24 -28 8 -9 25 -15
40 -13 34 4 42 28 8 28 -13 0 -28 5 -31 10 -3 6 1 10 9 10 22 0 20 20 -1 21
-13 0 -11 3 7 11 l25 11 -25 7 c-23 7 -24 8 -5 15 11 4 26 9 33 11 25 7 11 24
-22 24 -26 0 -39 -7 -54 -27z"/>
<path d="M1322 3297 c-59 -63 9 -160 88 -127 17 7 30 16 30 21 0 11 -11 11
-29 0 -8 -5 -21 -7 -29 -3 -12 4 -12 7 4 19 21 15 11 18 -15 3 -23 -12 -46 6
-55 42 -5 21 -2 30 13 38 34 17 54 13 48 -11 -4 -17 -3 -19 6 -10 24 24 65 4
65 -32 1 -22 12 -17 12 5 0 14 -9 37 -21 52 -27 35 -86 36 -117 3z"/>
<path d="M384 3290 c-31 -12 -39 -30 -15 -30 12 0 21 -6 21 -12 0 -7 9 -24 20
-38 29 -38 44 -16 28 43 -13 48 -18 52 -54 37z"/>
<path d="M1157 3266 c-14 -21 -14 -25 -2 -30 8 -3 15 -15 15 -26 0 -28 18 -25
26 5 7 29 -2 75 -15 75 -5 0 -16 -11 -24 -24z"/>
<path d="M610 3246 c0 -19 5 -38 11 -42 6 -3 9 -15 6 -25 -6 -21 5 -24 33 -9
18 10 18 12 2 40 -9 16 -20 30 -24 30 -5 0 -8 9 -8 20 0 11 -4 20 -10 20 -5 0
-10 -15 -10 -34z"/>
<path d="M1482 3228 c-18 -18 -15 -36 7 -48 27 -14 29 -13 42 12 10 18 8 24
-7 35 -22 16 -27 16 -42 1z"/>
<path d="M165 3210 c-3 -5 -1 -10 6 -10 8 0 8 -5 -2 -16 -11 -14 -10 -15 10
-12 19 2 25 -4 36 -35 16 -46 20 -51 34 -42 15 9 14 49 -3 90 -12 29 -20 35
-45 35 -16 0 -33 -4 -36 -10z"/>
<path d="M1585 3169 c-5 -16 -2 -26 11 -36 26 -19 33 -16 45 13 11 31 12 30
-23 39 -21 6 -27 3 -33 -16z"/>
<path d="M3130 3156 c-22 -59 -32 -115 -31 -185 1 -184 84 -338 252 -462 38
-29 69 -53 69 -54 0 -2 -17 -1 -39 2 -51 7 -64 -13 -19 -31 60 -24 115 -26
134 -5 17 18 16 22 -6 66 -12 25 -28 69 -34 97 -11 45 -13 49 -23 31 -7 -13
-8 -38 -3 -70 4 -27 7 -51 5 -53 -1 -2 -36 24 -77 56 -84 67 -128 123 -184
232 -34 68 -38 84 -42 170 -4 89 4 140 33 213 5 12 2 17 -9 17 -9 0 -21 -11
-26 -24z"/>
<path d="M928 3153 c-31 -5 -61 -33 -34 -33 8 0 22 -13 31 -30 23 -45 36 -37
33 20 -2 27 -3 49 -3 48 0 0 -12 -3 -27 -5z"/>
<path d="M1696 3133 c-3 -10 -8 -23 -11 -29 -7 -13 45 -38 55 -27 4 4 11 17
14 29 5 16 0 23 -19 32 -33 15 -32 15 -39 -5z"/>
<path d="M1421 3104 c-6 -15 -10 -28 -9 -29 2 -1 14 -8 27 -15 21 -11 26 -10
38 6 19 26 16 39 -12 52 -33 15 -30 16 -44 -14z"/>
<path d="M1802 3069 c-16 -25 -16 -26 17 -37 24 -8 31 -7 35 5 7 18 1 30 -23
42 -13 7 -20 5 -29 -10z"/>
<path d="M598 3056 c-3 -15 0 -27 8 -30 8 -3 14 -19 14 -37 0 -20 4 -29 13
-27 15 6 26 95 13 108 -18 18 -44 11 -48 -14z"/>
<path d="M1531 3054 c-6 -15 -10 -28 -9 -29 10 -8 50 -26 53 -23 8 10 26 50
23 53 -6 5 -47 25 -51 25 -2 0 -9 -12 -16 -26z"/>
<path d="M3520 3070 c-16 -10 -6 -40 14 -40 7 0 16 6 19 13 6 17 -17 37 -33
27z"/>
<path d="M1642 3005 c-16 -34 -16 -31 17 -43 27 -10 30 -8 39 18 9 24 7 29
-14 39 -32 14 -29 15 -42 -14z"/>
<path d="M1917 3003 c-12 -11 -7 -41 7 -46 14 -6 26 12 26 39 0 14 -21 19 -33
7z"/>
<path d="M3986 2973 c-4 -9 -2 -21 4 -27 13 -13 46 17 36 33 -11 16 -33 13
-40 -6z"/>
<path d="M1749 2953 c-7 -20 -6 -28 3 -35 23 -14 45 -8 56 16 9 20 7 25 -14
35 -33 15 -33 15 -45 -16z"/>
<path d="M3496 2965 c-8 -23 -7 -62 2 -49 4 6 15 13 25 17 22 8 19 40 -4 45
-9 2 -19 -4 -23 -13z m34 -9 c0 -3 -4 -8 -10 -11 -5 -3 -10 -1 -10 4 0 6 5 11
10 11 6 0 10 -2 10 -4z"/>
<path d="M3557 2963 c-2 -5 -7 -21 -11 -37 -6 -26 -5 -28 8 -17 11 9 16 10 16
2 0 -6 5 -11 12 -11 6 0 8 3 5 7 -4 3 -2 12 4 19 6 8 9 21 5 29 -6 16 -32 21
-39 8z m33 -17 c0 -11 -19 -15 -25 -6 -3 5 1 10 9 10 9 0 16 -2 16 -4z"/>
<path d="M3624 2952 c-20 -12 -25 -48 -10 -61 12 -10 18 -7 32 14 15 22 15 28
3 40 -8 8 -19 11 -25 7z m7 -45 c-8 -8 -11 -5 -11 9 0 27 14 41 18 19 2 -9 -1
-22 -7 -28z"/>
<path d="M3675 2910 c0 -39 10 -43 17 -6 1 11 9 21 16 24 10 3 13 -5 10 -29
-3 -30 0 -34 22 -37 24 -2 24 -2 6 13 -20 15 -20 15 0 16 10 0 13 3 7 6 -19 7
-16 23 4 23 24 0 12 8 -20 14 -15 2 -35 7 -45 10 -15 5 -17 0 -17 -34z"/>
<path d="M3782 2908 c-15 -15 -16 -45 -2 -53 5 -3 18 -1 27 5 17 11 17 11 1 6
-13 -4 -18 0 -18 14 0 10 5 22 10 25 6 3 10 2 10 -3 0 -6 10 -8 21 -5 19 5 21
3 14 -28 -5 -23 -4 -31 3 -24 6 6 12 19 14 29 1 11 9 21 17 24 11 4 12 -3 7
-32 -7 -35 -6 -36 21 -35 17 1 21 3 11 6 -10 2 -18 9 -18 14 0 5 8 9 18 10 10
0 12 3 5 6 -19 7 -16 23 5 24 21 1 -39 16 -94 23 -24 4 -45 1 -52 -6z"/>
<path d="M4319 2886 c-50 -20 -121 -57 -216 -112 -18 -11 -33 -25 -33 -31 0
-7 -8 -13 -18 -13 -10 0 -26 -6 -37 -13 -17 -13 -16 -14 15 -20 26 -6 31 -10
24 -24 -4 -10 -9 -39 -12 -65 -3 -43 -6 -47 -25 -43 -12 3 -44 9 -70 14 -46 8
-49 8 -58 -17 -21 -55 -10 -72 80 -118 110 -57 219 -139 311 -236 74 -77 90
-89 90 -67 0 6 14 27 30 46 55 62 39 117 -69 238 -58 65 -58 67 -12 50 201
-70 397 -238 481 -409 53 -108 70 -180 70 -298 0 -158 -55 -275 -170 -365 -51
-39 -103 -104 -83 -103 32 2 190 134 248 208 100 127 145 251 145 398 0 156
-40 281 -131 415 -138 205 -326 325 -619 397 l-35 9 57 32 c31 18 62 38 68 46
15 18 41 105 32 105 -4 0 -32 -11 -63 -24z"/>
<path d="M3945 2859 c-4 -17 -4 -33 0 -37 12 -12 40 15 43 42 3 20 -1 26 -17
26 -14 0 -21 -9 -26 -31z m33 4 c-2 -9 -8 -18 -15 -20 -7 -3 -9 3 -6 16 6 25
26 28 21 4z"/>
<path d="M3623 2818 c-6 -7 -16 -24 -23 -36 -11 -22 -10 -23 9 -17 12 4 21 2
21 -4 0 -6 4 -11 8 -11 4 0 9 18 10 40 3 40 -7 51 -25 28z"/>
<path d="M3670 2808 c0 -7 -3 -24 -6 -38 -5 -20 -4 -22 6 -10 9 12 13 12 17 2
3 -9 10 -4 19 13 8 15 11 31 8 36 -8 14 -44 11 -44 -3z m30 -8 c0 -5 -5 -10
-11 -10 -5 0 -7 5 -4 10 3 6 8 10 11 10 2 0 4 -4 4 -10z"/>
<path d="M3726 2788 c-9 -37 -7 -45 14 -51 11 -3 20 -1 20 4 0 5 -8 9 -17 9
-17 1 -17 1 0 14 14 11 15 15 5 19 -7 3 -3 6 10 6 27 1 20 21 -7 21 -11 0 -21
-10 -25 -22z"/>
<path d="M3450 2785 c-14 -17 -5 -35 18 -35 15 1 14 3 -3 16 -20 16 -20 16 3
9 12 -3 22 -2 22 3 0 17 -28 21 -40 7z"/>
<path d="M3806 2791 c-3 -5 -3 -17 0 -28 4 -14 4 -15 -4 -4 -8 11 -12 9 -22
-9 -11 -20 -10 -21 9 -15 14 4 21 2 21 -7 0 -23 20 15 20 39 0 24 -15 39 -24
24z"/>
<path d="M3926 2694 c-7 -19 1 -34 19 -34 15 0 28 27 19 41 -9 14 -31 10 -38
-7z"/>
<path d="M3765 2488 c-14 -29 -24 -66 -24 -83 1 -24 3 -21 10 15 9 46 32 85
62 104 13 8 20 6 32 -9 16 -20 16 -20 13 0 -2 14 -12 21 -36 23 -30 3 -34 0
-57 -50z"/>
<path d="M3520 2467 c0 -14 91 -57 128 -59 6 -1 12 -5 12 -10 0 -4 7 -8 15 -8
7 0 19 -8 24 -17 6 -10 11 -13 11 -7 0 12 -54 62 -88 81 -23 14 -102 29 -102
20z"/>
<path d="M3833 2438 c-27 -30 -57 -91 -74 -148 -19 -68 -24 -66 -22 8 1 52 0
58 -6 27 -4 -24 -11 -39 -19 -37 -6 1 -12 1 -12 0 1 -22 30 -93 37 -93 6 0 27
22 48 49 22 30 31 46 20 43 -13 -6 -12 0 6 26 l23 32 -23 -20 -24 -20 8 25 c4
14 20 49 35 78 15 28 27 52 26 52 -1 0 -12 -10 -23 -22z"/>
<path d="M3106 2371 c-9 -14 -12 -118 -4 -126 13 -13 28 7 28 38 1 29 3 27 26
-28 62 -142 143 -234 260 -292 69 -34 82 -37 166 -37 69 -1 92 2 96 13 4 11
-6 13 -47 9 -165 -16 -335 92 -423 268 -23 46 -39 86 -36 89 3 3 22 -2 42 -10
23 -10 43 -12 52 -7 12 7 6 12 -25 26 -22 10 -50 29 -62 42 -23 24 -63 32 -73
15z"/>
<path d="M3565 2371 c-3 -6 1 -13 9 -16 9 -3 24 -8 34 -12 9 -3 26 -8 36 -10
11 -2 26 -9 34 -16 13 -10 14 -9 3 10 -13 26 -33 38 -78 47 -18 4 -34 3 -38
-3z"/>
<path d="M3711 2334 c0 -11 3 -14 6 -6 3 7 2 16 -1 19 -3 4 -6 -2 -5 -13z"/>
<path d="M3839 2323 c-13 -16 -17 -22 -9 -15 8 6 41 12 75 12 57 1 59 1 35 15
-39 22 -74 18 -101 -12z"/>
<path d="M3760 2071 c-36 -32 -42 -43 -36 -64 4 -16 17 -29 36 -35 21 -8 30
-17 30 -33 0 -21 -1 -21 -18 -6 -10 10 -24 17 -31 17 -21 0 -8 -44 17 -56 12
-6 29 -20 37 -30 13 -18 14 -18 39 9 14 15 30 27 36 27 6 0 15 11 21 24 14 30
-2 63 -35 72 -13 3 -26 14 -29 25 -5 20 7 26 18 9 3 -5 15 -10 26 -10 10 0 19
5 19 10 0 15 -38 50 -55 50 -8 0 -15 7 -15 15 0 23 -13 18 -60 -24z m30 -52
c0 -5 -4 -9 -10 -9 -5 0 -10 7 -10 16 0 8 5 12 10 9 6 -3 10 -10 10 -16z m64
-68 c3 -5 -1 -14 -9 -21 -13 -10 -15 -9 -15 9 0 21 14 28 24 12z"/>
<path d="M5085 1610 c-4 -6 -21 -10 -39 -10 -53 0 -75 -43 -40 -81 9 -10 14
-25 11 -34 -8 -19 -27 -20 -27 -1 0 20 -19 31 -32 18 -7 -7 -5 -21 5 -43 8
-19 17 -42 21 -51 6 -19 26 -25 26 -8 0 5 16 9 35 8 62 -2 86 44 45 87 -18 19
-18 23 -5 41 14 19 15 19 21 -3 3 -12 12 -24 20 -27 19 -7 18 33 -2 62 -8 12
-13 26 -10 31 3 5 -1 11 -9 15 -8 3 -17 1 -20 -4z m-27 -52 c-6 -18 -28 -21
-28 -4 0 9 7 16 16 16 9 0 14 -5 12 -12z m12 -104 c0 -8 -7 -14 -15 -14 -17 0
-18 2 -9 24 7 18 24 12 24 -10z"/>
<path d="M5722 1489 c2 -18 9 -34 16 -37 10 -3 13 5 10 29 -2 18 -9 34 -16 37
-10 3 -13 -5 -10 -29z"/>
<path d="M5625 1423 c-44 -13 -127 -42 -185 -62 -58 -21 -152 -51 -209 -67
-115 -31 -113 -41 9 -43 36 -1 104 -5 152 -10 l86 -10 37 32 c54 46 201 187
195 186 -3 0 -41 -12 -85 -26z"/>
<path d="M5788 1427 c8 -9 37 -29 66 -46 29 -16 85 -59 125 -96 l73 -67 69 6
c38 3 100 9 139 12 38 3 67 10 64 15 -3 5 -105 41 -227 80 -122 39 -233 77
-247 84 -14 7 -36 16 -50 20 -22 7 -23 6 -12 -8z"/>
<path d="M4797 1334 c-4 -4 -7 -20 -7 -35 0 -15 -4 -31 -10 -34 -5 -3 -10 1
-10 9 0 9 -4 16 -10 16 -5 0 -10 -15 -10 -34 0 -30 4 -35 30 -41 39 -8 62 9
54 40 -3 13 -1 26 5 29 6 4 11 0 11 -8 0 -9 5 -16 10 -16 6 0 10 16 10 35 0
21 -5 35 -12 35 -7 0 -22 3 -33 6 -11 3 -24 2 -28 -2z m28 -23 c3 -5 1 -12 -5
-16 -5 -3 -10 1 -10 9 0 18 6 21 15 7z m-5 -71 c0 -5 -7 -10 -15 -10 -8 0 -15
5 -15 10 0 6 7 10 15 10 8 0 15 -4 15 -10z"/>
<path d="M5098 1225 c-10 -23 -10 -29 5 -40 16 -12 113 -28 248 -41 64 -6 66
-6 92 26 31 37 34 50 10 50 -55 1 -283 20 -310 26 -29 6 -34 3 -45 -21z"/>
<path d="M4517 1220 c-9 -11 -17 -25 -17 -30 0 -6 -6 -10 -14 -10 -9 0 -12 -7
-9 -21 4 -12 11 -18 20 -15 8 3 22 6 30 6 12 0 14 7 9 31 -5 25 -3 30 9 25 17
-6 18 -4 9 18 -8 21 -16 20 -37 -4z m13 -50 c0 -5 -4 -10 -10 -10 -5 0 -10 5
-10 10 0 6 5 10 10 10 6 0 10 -4 10 -10z"/>
<path d="M6265 1220 c-27 -5 -87 -9 -132 -9 -46 -1 -83 -5 -83 -10 0 -5 12
-23 26 -40 22 -27 32 -31 74 -31 27 0 83 5 125 11 66 10 76 14 81 35 3 13 4
31 0 39 -6 16 -14 17 -91 5z"/>
<path d="M4017 1213 c-4 -3 -7 -14 -7 -24 0 -10 -8 -19 -17 -21 -15 -3 -14 -5
5 -10 19 -5 22 -2 22 22 0 19 6 30 18 33 14 4 14 5 1 6 -9 0 -19 -2 -22 -6z"/>
<path d="M5496 1192 c12 -52 44 -70 144 -78 l90 -7 0 -101 c0 -55 -3 -185 -7
-289 -6 -178 -7 -187 -25 -181 -10 3 -30 -1 -43 -10 -15 -10 -26 -12 -30 -6
-3 6 -23 10 -45 10 -45 0 -60 23 -33 52 17 19 17 20 -7 18 -14 -2 -33 1 -43 5
-23 10 -31 1 -19 -22 16 -29 -9 -56 -46 -48 -34 7 -84 -3 -76 -16 3 -5 -2 -6
-11 -3 -22 9 -47 -53 -32 -81 6 -11 10 -29 9 -40 -2 -19 -2 -19 12 -2 12 16
14 16 20 2 3 -9 10 -13 16 -10 5 3 10 -2 11 -12 0 -15 2 -14 11 5 14 28 30 24
39 -9 6 -22 7 -22 8 -3 1 17 6 20 25 17 15 -3 27 -13 29 -27 l4 -21 2 21 c1
17 6 20 26 16 14 -2 25 -9 26 -16 0 -6 4 -1 9 11 6 16 14 20 30 16 12 -3 24
-12 27 -19 3 -8 9 -10 16 -4 42 34 64 59 72 85 7 21 20 33 43 41 29 9 31 12
18 23 -14 12 -16 53 -16 307 l0 294 33 2 c17 0 66 2 107 3 98 2 117 9 135 52
9 20 14 37 13 38 -2 1 -126 5 -276 8 l-272 6 6 -27z"/>
<path d="M3940 1190 c-12 -7 -12 -10 -1 -10 7 0 11 -6 8 -14 -3 -8 1 -17 9
-20 16 -6 18 2 4 24 -6 9 -5 17 3 22 7 4 8 8 2 8 -5 0 -17 -5 -25 -10z"/>
<path d="M3872 1148 c2 -28 -1 -34 -19 -36 -13 -2 -23 2 -23 8 0 7 -5 6 -14
-2 -12 -11 -11 -14 3 -19 9 -4 26 -3 38 2 14 5 24 4 27 -4 3 -7 3 7 0 30 -5
34 -2 42 13 46 14 4 13 5 -5 6 -21 1 -23 -3 -20 -31z"/>
<path d="M3796 1163 c5 -5 12 -12 15 -16 3 -5 9 -2 12 7 5 12 0 16 -15 16 -12
0 -17 -3 -12 -7z"/>
<path d="M4078 1144 c5 -25 3 -26 -27 -22 -17 2 -31 1 -31 -4 0 -4 14 -8 30
-8 l30 0 -1 -62 c0 -35 -3 -56 -7 -47 -6 14 -9 15 -20 3 -7 -8 -8 -14 -2 -14
5 0 10 -11 10 -25 0 -23 -4 -25 -45 -25 -44 0 -45 1 -45 32 0 25 -3 29 -12 20
-17 -17 -28 -15 -28 7 0 11 8 22 18 24 13 4 12 5 -4 6 -12 0 -25 8 -28 17 -8
22 -8 24 8 24 23 0 25 13 5 32 -18 17 -19 17 -16 -4 1 -13 -4 -23 -10 -24 -7
-1 -16 -2 -20 -3 -4 0 1 -7 10 -13 9 -7 19 -27 23 -44 5 -26 2 -32 -21 -42
-14 -7 -36 -12 -48 -13 -12 0 -16 -3 -9 -6 20 -8 14 -33 -9 -33 -14 0 -19 5
-16 14 3 8 -1 17 -10 20 -12 5 -14 1 -10 -14 4 -17 2 -18 -14 -10 -14 8 -17 7
-13 -3 4 -11 -8 -16 -44 -21 -83 -11 -204 -46 -256 -74 -61 -33 -113 -93 -160
-181 -42 -81 -46 -100 -13 -78 54 39 159 96 237 130 80 34 270 91 270 81 0 -3
-21 -41 -46 -85 -40 -69 -50 -80 -68 -74 -11 3 -48 8 -81 10 l-60 5 65 -15
c36 -8 82 -19 103 -24 20 -5 37 -5 37 -1 0 5 -7 10 -15 12 -11 2 -3 22 32 78
26 41 55 83 64 93 23 25 65 19 62 -8 -1 -11 -4 -38 -7 -60 -5 -50 32 -122 69
-131 17 -4 25 -13 25 -29 0 -26 24 -50 40 -40 13 8 13 58 0 71 -8 8 -6 15 5
24 8 7 15 28 15 47 0 32 2 35 25 30 16 -3 24 0 22 7 -2 6 -22 12 -45 14 l-42
3 0 55 0 54 63 0 c89 0 95 7 62 64 -20 35 -29 64 -31 109 -2 42 0 56 6 42 8
-19 9 -19 9 3 1 12 -3 22 -9 22 -5 0 -10 20 -10 45 0 25 4 45 10 45 5 0 9 -16
8 -35 -1 -19 2 -38 5 -42 9 -9 8 70 -1 82 -4 6 -14 11 -23 13 -13 2 -15 -4
-11 -24z m-122 -199 c-3 -8 -10 -15 -16 -15 -14 0 -12 37 3 43 15 5 21 -8 13
-28z m121 3 c-3 -7 -5 -2 -5 12 0 14 2 19 5 13 2 -7 2 -19 0 -25z m-160 -250
c-3 -8 -6 -5 -6 6 -1 11 2 17 5 13 3 -3 4 -12 1 -19z"/>
<path d="M3760 1135 c0 -14 2 -25 4 -25 2 0 6 11 8 25 3 14 1 25 -3 25 -5 0
-9 -11 -9 -25z"/>
<path d="M3901 1144 c0 -11 3 -14 6 -6 3 7 2 16 -1 19 -3 4 -6 -2 -5 -13z"/>
<path d="M3724 1128 l-19 -23 23 19 c21 18 27 26 19 26 -2 0 -12 -10 -23 -22z"/>
<path d="M2139 1101 c-41 -41 -49 -74 -29 -125 10 -26 4 -32 -16 -18 -14 9
-44 76 -44 97 0 9 -4 13 -10 10 -5 -3 -10 -24 -10 -47 0 -32 6 -46 30 -68 23
-22 27 -29 15 -34 -17 -6 -20 -39 -5 -67 14 -25 26 -24 35 4 5 18 9 14 20 -28
16 -58 44 -85 89 -85 26 1 28 2 14 11 -10 5 -20 9 -24 9 -3 -1 -13 11 -21 27
-15 28 -34 83 -29 83 2 0 24 -20 48 -45 39 -39 51 -45 87 -45 23 0 55 7 71 15
31 16 42 32 15 21 -8 -3 -30 1 -49 9 -19 8 -43 12 -52 8 -11 -4 -15 -3 -10 5
4 6 -7 15 -26 23 -36 13 -81 62 -81 88 0 9 -5 19 -11 23 -8 5 -7 8 2 8 7 0 12
13 12 33 0 17 9 52 20 76 23 51 23 51 9 51 -6 0 -29 -17 -50 -39z"/>
<path d="M3702 1075 c0 -16 2 -22 5 -12 2 9 2 23 0 30 -3 6 -5 -1 -5 -18z"/>
<path d="M3761 1073 c1 -22 2 -23 6 -8 3 11 10 23 17 27 7 5 5 8 -6 8 -13 0
-18 -7 -17 -27z"/>
<path d="M6435 1077 c4 -9 -3 -21 -17 -31 -18 -13 -19 -16 -5 -16 15 0 15 -3
5 -21 -10 -17 -10 -23 0 -26 25 -9 11 -23 -23 -23 -33 0 -35 -2 -35 -35 0 -29
4 -35 21 -35 19 0 20 -5 17 -80 l-3 -80 52 0 53 0 -3 43 c-2 37 -6 44 -34 57
-32 15 -43 30 -22 30 6 0 8 9 4 20 -5 17 -1 21 24 26 29 6 31 9 29 49 -1 32
-5 42 -15 38 -7 -3 -13 0 -13 6 0 7 7 14 15 17 8 4 15 18 15 32 0 24 -1 24
-18 9 -23 -21 -36 -22 -29 -3 3 8 -1 20 -9 27 -12 10 -13 9 -9 -4z m10 -77 c3
-5 1 -10 -4 -10 -6 0 -11 5 -11 10 0 6 2 10 4 10 3 0 8 -4 11 -10z m25 -30 c0
-5 -4 -10 -10 -10 -5 0 -10 5 -10 10 0 6 5 10 10 10 6 0 10 -4 10 -10z m-10
-211 c0 -5 -12 -9 -27 -9 -26 0 -26 1 -8 14 20 14 35 12 35 -5z"/>
<path d="M2344 1040 c-43 -54 -88 -90 -132 -107 l-37 -14 34 6 c64 10 202 120
185 147 -9 14 -18 8 -50 -32z"/>
<path d="M3832 1064 c-7 -8 -8 -14 -2 -14 17 0 11 -28 -7 -32 -15 -3 -14 -5 4
-10 17 -5 22 -1 25 23 6 36 -3 51 -20 33z"/>
<path d="M4029 1069 c-10 -6 -7 -9 14 -9 29 0 35 5 14 13 -8 3 -20 1 -28 -4z"/>
<path d="M4001 1044 c0 -11 3 -14 6 -6 3 7 2 16 -1 19 -3 4 -6 -2 -5 -13z"/>
<path d="M3715 1039 c-4 -6 -5 -12 -2 -15 2 -3 7 2 10 11 7 17 1 20 -8 4z"/>
<path d="M3753 1027 l-32 -23 20 -30 c21 -32 27 -26 7 7 -12 18 -9 23 17 45
38 31 29 31 -12 1z"/>
<path d="M3771 1010 c0 -8 3 -21 8 -28 6 -10 10 -9 14 7 3 12 1 19 -3 16 -5
-3 -11 1 -13 7 -4 9 -6 8 -6 -2z"/>
<path d="M3995 1000 c-19 -8 -19 -9 3 -9 12 -1 22 4 22 9 0 6 -1 10 -2 9 -2 0
-12 -4 -23 -9z"/>
<path d="M6015 903 c-67 -20 -79 -27 -83 -47 -2 -10 6 -20 21 -25 14 -6 28
-15 32 -20 15 -26 105 -5 105 24 0 8 9 19 20 25 24 13 26 45 4 54 -22 8 -42 6
-99 -11z"/>
<path d="M2594 843 c-37 -82 -58 -192 -49 -259 8 -67 24 -72 17 -6 -6 63 20
161 63 239 33 61 34 63 14 73 -18 10 -22 5 -45 -47z"/>
<path d="M6083 798 c-13 -6 -23 -15 -23 -20 0 -16 37 -8 55 12 21 23 6 26 -32
8z"/>
<path d="M2317 717 c-13 -35 -7 -93 16 -137 25 -51 78 -86 145 -96 32 -5 41
-9 32 -18 -17 -17 -132 -14 -152 4 -54 48 -56 48 -34 -5 25 -59 106 -82 181
-51 31 13 35 13 35 0 0 -8 -7 -17 -15 -20 -23 -9 -18 -33 10 -40 40 -10 80 9
83 39 3 27 4 27 34 11 42 -22 111 -14 144 17 36 34 32 51 -8 32 -38 -19 -112
-18 -140 1 -19 14 -19 15 18 21 97 15 154 80 154 174 l0 45 -22 -29 c-32 -40
-88 -93 -120 -113 -16 -9 -28 -23 -28 -32 0 -12 -2 -12 -9 -2 -7 12 -11 12
-22 0 -10 -12 -21 -13 -49 -5 -19 5 -45 10 -57 11 -13 0 -23 6 -23 11 0 11
-41 40 -52 37 -5 -1 -8 4 -8 10 0 9 -4 8 -10 -2 -8 -12 -10 -11 -10 6 0 12
-18 40 -39 62 -22 22 -41 51 -43 64 -3 20 -4 21 -11 5z"/>
<path d="M6425 690 c-38 -7 -38 -7 18 -9 32 0 57 3 57 9 0 11 -14 11 -75 0z"/>
<path d="M6002 670 c-20 -19 -24 -19 -45 -5 -22 14 -25 13 -44 -13 -21 -28
-53 -87 -53 -97 0 -17 35 0 66 33 22 22 32 28 25 15 -16 -32 -15 -33 33 -33
25 0 56 -4 71 -10 18 -7 31 -6 45 2 24 16 35 5 21 -21 -14 -24 2 -37 41 -32
35 3 65 -13 74 -41 4 -13 14 -28 22 -34 28 -20 6 -41 -58 -53 -49 -10 -242
-29 -304 -31 -5 0 -6 -3 -3 -7 9 -9 -52 -35 -64 -27 -19 11 -8 26 16 22 14 -3
25 -1 25 3 0 5 -13 9 -29 9 -15 0 -57 2 -92 5 -53 4 -59 3 -36 -6 27 -11 34
-23 19 -33 -11 -7 -53 4 -48 13 2 3 -33 4 -77 2 -87 -4 -228 13 -289 35 -32
11 -38 11 -38 -1 0 -8 6 -12 13 -10 20 8 44 -12 31 -25 -9 -9 -14 -9 -18 -1
-4 6 -12 11 -18 11 -7 0 -7 -5 1 -14 6 -7 8 -22 4 -32 -5 -14 4 -10 30 13 37
32 67 43 67 23 0 -5 -8 -7 -17 -3 -14 5 -16 3 -6 -7 9 -9 9 -19 2 -32 -10 -19
-12 -19 -30 -2 -10 9 -19 12 -19 7 0 -6 7 -16 15 -23 11 -9 13 -16 6 -23 -7
-7 -17 -5 -31 8 -11 10 -20 13 -20 7 0 -6 5 -14 10 -17 6 -4 8 -11 5 -16 -4
-5 -1 -17 4 -26 10 -17 10 -17 11 1 0 18 2 18 24 -3 14 -13 22 -29 19 -37 -4
-10 0 -12 11 -8 9 3 23 1 31 -6 9 -7 18 -10 21 -7 3 3 -4 11 -16 17 -17 9 -19
14 -10 25 10 12 15 12 35 -1 16 -10 22 -21 18 -32 -5 -13 -3 -14 7 -5 10 9 20
8 46 -5 31 -14 36 -14 50 0 13 12 21 13 44 5 24 -9 32 -8 48 6 22 20 58 23 64
5 3 -9 6 -9 12 0 4 7 -3 14 -19 18 -14 3 -25 10 -25 15 0 17 41 50 57 47 27
-5 25 -23 -4 -36 -27 -11 -27 -11 8 -7 27 4 38 1 43 -10 4 -10 -1 -15 -14 -15
-10 0 -22 -4 -25 -10 -3 -6 9 -9 31 -7 38 2 59 -18 27 -26 -15 -4 -15 -5 3 -6
11 0 24 -5 30 -11 27 -27 272 -19 267 8 -3 11 1 14 30 16 6 1 18 9 25 19 7 9
18 17 23 17 5 0 19 9 31 20 12 11 17 20 10 20 -6 0 -14 -5 -18 -12 -5 -8 -11
-5 -20 7 -12 16 -11 20 7 33 18 12 22 12 34 -4 8 -11 15 -14 15 -8 0 5 -5 15
-11 21 -8 8 -6 14 10 22 16 9 19 16 11 35 -5 13 -6 27 -3 30 4 3 -1 6 -9 6 -9
0 -18 7 -22 15 -5 15 8 19 46 16 9 -1 31 5 47 14 17 8 31 13 31 9 0 -4 6 -1
14 5 7 6 21 9 30 5 9 -3 23 -1 31 6 8 7 22 10 30 6 10 -4 19 3 27 19 6 14 14
25 18 25 4 0 7 7 7 15 0 8 -6 15 -14 15 -18 0 -16 20 4 42 16 18 16 18 0 12
-12 -4 -17 -1 -17 10 0 9 7 16 15 16 10 0 15 11 15 35 0 39 2 38 -100 39 -51
1 -55 3 -53 24 2 16 -2 22 -17 22 -23 0 -24 -5 -11 -46 5 -16 14 -49 21 -73 8
-31 14 -40 20 -31 7 11 11 11 23 1 11 -8 17 -9 22 -1 3 6 11 8 16 5 5 -4 9 -1
9 4 0 6 7 11 15 11 8 0 15 -7 15 -15 0 -18 -58 -30 -104 -21 -18 4 -46 2 -62
-4 -26 -10 -32 -8 -55 18 -15 17 -32 38 -38 48 -11 18 -12 18 -27 -2 -14 -20
-17 -21 -56 -7 -81 28 -83 30 -54 68 22 28 23 34 10 39 -28 11 -50 6 -72 -14z
m458 -160 c0 -5 -4 -10 -9 -10 -6 0 -13 5 -16 10 -3 6 1 10 9 10 9 0 16 -4 16
-10z m-66 -22 c-9 -32 -14 -35 -24 -18 -14 22 -12 30 7 23 11 -4 14 -3 9 5 -4
7 -2 12 4 12 7 0 9 -8 4 -22z m51 -8 c-8 -13 -35 0 -35 16 0 12 4 12 20 4 11
-6 18 -15 15 -20z m35 -10 c0 -5 -7 -10 -16 -10 -8 0 -12 5 -9 10 3 6 10 10
16 10 5 0 9 -4 9 -10z m-55 -9 c7 -12 -12 -24 -25 -16 -11 7 -4 25 10 25 5 0
11 -4 15 -9z m40 -21 c-3 -5 -13 -10 -21 -10 -8 0 -12 5 -9 10 3 6 13 10 21
10 8 0 12 -4 9 -10z m-63 -15 c0 -5 -5 -11 -11 -13 -6 -2 -11 4 -11 13 0 9 5
15 11 13 6 -2 11 -8 11 -13z m-195 -99 c-4 -9 -11 -16 -16 -16 -15 0 -23 33
-9 41 17 11 32 -5 25 -25z m-81 9 c-25 -19 -32 -19 -40 0 -4 11 2 15 27 15 30
-1 31 -1 13 -15z m-126 -5 c0 -5 -2 -10 -4 -10 -2 0 -11 -3 -19 -6 -8 -3 -17
2 -20 10 -5 12 0 16 18 16 14 0 25 -4 25 -10z m76 -1 c3 -6 0 -17 -8 -25 -13
-13 -16 -13 -28 1 -12 14 -11 18 1 26 19 12 26 11 35 -2z m-627 -8 c10 -7 11
-13 1 -31 l-12 -22 -20 20 c-30 30 -6 56 31 33z m367 -2 c3 -6 1 -16 -4 -21
-13 -13 -45 8 -36 23 7 12 31 11 40 -2z m132 -6 c6 -19 -26 -27 -44 -13 -12
11 -12 15 -2 22 17 11 40 6 46 -9z m216 2 c8 -21 -28 -39 -44 -21 -9 11 -7 17
7 25 24 14 30 14 37 -4z m-632 -3 c11 -5 14 -12 9 -21 -7 -11 -13 -10 -35 4
-14 10 -26 19 -26 21 0 6 33 3 52 -4z m102 -12 c-6 -6 -19 -7 -30 -3 -17 6
-17 8 6 13 29 8 38 4 24 -10z m63 -6 c38 -29 42 -44 13 -44 -34 0 -69 28 -63
50 7 25 9 25 50 -6z m323 -18 c-29 -13 -47 13 -22 32 14 11 19 10 30 -5 11
-15 10 -19 -8 -27z m217 10 c-4 -9 -11 -16 -17 -16 -17 0 -24 31 -9 41 18 11
34 -5 26 -25z m-617 -21 c0 -5 -4 -16 -9 -24 -8 -12 -13 -12 -35 3 -24 15 -34
45 -20 58 8 8 64 -25 64 -37z m150 30 c10 -12 9 -16 -4 -21 -22 -8 -52 16 -34
27 18 12 24 11 38 -6z m121 -1 c10 -13 10 -17 -2 -25 -9 -6 -18 -3 -26 8 -22
29 4 46 28 17z m-389 -11 c20 -18 22 -31 8 -53 -7 -12 -13 -11 -34 9 -20 19
-23 28 -15 42 12 23 17 24 41 2z m602 -20 c-19 -14 -34 -9 -34 12 0 18 22 25
38 12 11 -9 11 -13 -4 -24z m-689 7 c17 -18 17 -22 4 -36 -14 -13 -17 -13 -32
4 -10 11 -15 26 -11 36 8 21 17 20 39 -4z m432 1 c10 -16 9 -20 -6 -24 -21 -5
-48 29 -28 36 20 9 22 8 34 -12z m132 5 c10 -12 8 -17 -8 -25 -16 -9 -22 -8
-31 8 -7 14 -6 21 3 24 20 9 24 8 36 -7z m214 0 c9 -23 -20 -41 -39 -25 -14
12 -14 14 2 26 23 17 31 16 37 -1z m-396 -48 c-18 -11 -24 -10 -31 9 -9 24 16
37 31 16 10 -13 10 -18 0 -25z m125 1 c-9 -4 -23 -2 -30 4 -11 9 -11 13 4 24
14 10 19 10 30 -5 10 -14 10 -18 -4 -23z m137 27 c9 -11 8 -15 -5 -20 -22 -9
-50 14 -32 25 18 12 24 11 37 -5z m-394 -6 c22 -8 24 -13 15 -30 -19 -35 -67
-19 -55 19 7 24 6 24 40 11z m475 -15 c0 -21 -19 -28 -36 -14 -14 12 -14 14 2
26 19 14 34 9 34 -12z m-740 -27 c1 -18 -24 -18 -42 0 -28 28 -14 47 17 25 14
-10 25 -21 25 -25z m83 -19 c-9 -9 -18 -8 -37 5 -23 14 -24 19 -14 36 12 19
13 19 37 -5 19 -19 22 -28 14 -36z m88 43 c14 -12 20 -25 16 -35 -13 -35 -74
-4 -62 32 8 26 16 26 46 3z m439 -7 c0 -7 -7 -16 -15 -19 -20 -7 -33 23 -14
34 16 10 29 4 29 -15z m-131 1 c9 -11 8 -15 -5 -20 -20 -8 -39 7 -30 23 10 15
21 14 35 -3z m210 -10 c10 -12 8 -17 -8 -25 -16 -9 -22 -8 -31 8 -7 14 -6 21
3 24 20 9 24 8 36 -7z m-256 -10 c3 -8 -2 -16 -13 -19 -18 -5 -35 15 -23 27
11 11 31 6 36 -8z m126 0 c9 -11 8 -15 -5 -20 -22 -9 -50 14 -32 25 18 12 24
11 37 -5z m69 -39 c-29 -10 -44 13 -20 31 14 11 19 10 30 -5 11 -15 9 -19 -10
-26z m145 29 c8 -20 -33 -33 -44 -15 -5 8 -3 17 4 21 19 12 34 9 40 -6z m-616
-41 c-6 -16 -30 -17 -50 -3 -11 9 -16 20 -11 31 6 16 8 16 35 0 16 -10 28 -22
26 -28z m81 37 c15 -10 6 -42 -12 -42 -22 0 -39 18 -33 34 7 17 25 20 45 8z
m271 -6 c9 -11 8 -15 -5 -20 -22 -9 -50 14 -32 25 18 12 24 11 37 -5z m206
-39 c-10 -5 -22 -4 -31 4 -14 12 -14 14 2 26 16 12 21 11 31 -4 11 -14 11 -19
-2 -26z m-256 19 c9 -11 8 -15 -5 -20 -20 -8 -39 7 -30 23 10 15 21 14 35 -3z
m129 -4 c2 -7 -4 -15 -13 -18 -21 -8 -40 17 -22 28 15 10 30 5 35 -10z m-51
-19 c2 -6 -4 -13 -13 -17 -21 -8 -39 15 -21 26 15 9 30 5 34 -9z m132 3 c10
-12 8 -17 -8 -25 -26 -14 -28 -14 -35 6 -4 9 -1 20 6 25 18 11 24 10 37 -6z
m-184 -17 c10 -15 -1 -23 -20 -15 -9 3 -13 10 -10 16 8 13 22 13 30 -1z m129
-4 c4 -11 -1 -15 -19 -15 -26 0 -34 15 -12 23 20 9 25 8 31 -8z"/>
<path d="M5830 550 c0 -11 5 -20 10 -20 6 0 10 9 10 20 0 11 -4 20 -10 20 -5
0 -10 -9 -10 -20z"/>
<path d="M5812 530 c0 -14 2 -19 5 -12 2 6 2 18 0 25 -3 6 -5 1 -5 -13z"/>
<path d="M6075 490 c3 -5 8 -10 11 -10 2 0 4 5 4 10 0 6 -5 10 -11 10 -5 0 -7
-4 -4 -10z"/>
<path d="M5297 423 c-4 -3 -7 -11 -7 -17 0 -6 5 -5 12 2 6 6 9 14 7 17 -3 3
-9 2 -12 -2z"/>
<path d="M6170 404 l-45 -14 45 6 c25 3 49 9 55 15 12 12 2 11 -55 -7z"/>
<path d="M5900 378 c0 -10 42 -9 100 2 41 7 38 8 -27 7 -40 -1 -73 -5 -73 -9z"/>
</g>
</svg>
